<svg width="24" height="24" viewBox="0 0 24 24" fill="none" xmlns="http://www.w3.org/2000/svg">
<g opacity="0.4">
<path fill-rule="evenodd" clip-rule="evenodd" d="M12 1.25C6.06294 1.25 1.25 6.06294 1.25 12C1.25 17.9371 6.06294 22.75 12 22.75C12.4655 22.75 12.8882 22.6632 13.2572 22.47C13.6304 22.2746 13.9056 21.993 14.1056 21.6706C14.4831 21.0622 14.6024 20.2849 14.6761 19.6065C14.7012 19.3756 14.7214 19.152 14.7412 18.9335C14.785 18.4487 14.8266 17.9888 14.9142 17.5282C15.0374 16.8802 15.2325 16.3686 15.5614 15.9973C15.8041 15.7233 16.2604 15.4907 16.9627 15.2864C17.4563 15.1429 17.9844 15.0351 18.5425 14.9212C18.7717 14.8744 19.0059 14.8266 19.2449 14.7749C20.0182 14.6074 20.8542 14.3958 21.5021 14.0204C22.1925 13.6204 22.75 12.9801 22.75 12C22.75 6.06294 17.9371 1.25 12 1.25ZM14 4.5C12.7573 4.5 11.75 5.50734 11.75 6.75C11.75 7.99266 12.7573 9 14 9C15.2427 9 16.25 7.99266 16.25 6.75C16.25 5.50734 15.2427 4.5 14 4.5ZM8 6.5C6.75734 6.5 5.75 7.50734 5.75 8.75C5.75 9.99266 6.75734 11 8 11C9.24266 11 10.25 9.99266 10.25 8.75C10.25 7.50734 9.24266 6.5 8 6.5ZM6.25 15.5C6.25 14.2573 7.25734 13.25 8.5 13.25C9.74266 13.25 10.75 14.2573 10.75 15.5C10.75 16.7427 9.74266 17.75 8.5 17.75C7.25734 17.75 6.25 16.7427 6.25 15.5Z" fill="#363C54"/>
</g>
</svg>
