<svg width="24" height="24" viewBox="0 0 24 24" fill="none" xmlns="http://www.w3.org/2000/svg">
<path d="M7.25 2C7.05109 2 6.86032 2.07902 6.71967 2.21967L2.21967 6.71967C2.07902 6.86032 2 7.05109 2 7.25V21.25C2 21.6642 2.33579 22 2.75 22H17C17 21.1716 16.3284 20.5 15.5 20.5H3.5V9.5H8.75C9.16421 9.5 9.5 9.16421 9.5 8.75V3.5H15.75V8C15.75 8.82843 16.4216 9.5 17.25 9.5V2.75C17.25 2.33579 16.9142 2 16.5 2H7.25ZM8 8H3.5V7.56066L7.56066 3.5H8V8Z" fill="#000888"/>
<path d="M18.0874 13.3811L19.0808 14.2156H11.5V14.2844C11.5 15.1128 12.1975 15.7844 13.058 15.7844H19.0808L18.0874 16.6189C17.4081 17.1896 17.4381 18.0884 17.9421 18.75L21.7332 15.5651C22.089 15.2662 22.089 14.7338 21.7332 14.4349L17.9421 11.25L17.8555 11.3637C17.3768 11.9921 17.4776 12.8687 18.0874 13.3811Z" fill="#000888"/>
</svg>
